<svg width="1200" height="900" viewBox="0 0 1200 900" fill="none" xmlns="http://www.w3.org/2000/svg">
  <rect width="1200" height="900" rx="40" fill="#07111F"/>
  <rect x="64" y="64" width="1072" height="772" rx="28" fill="#0E1C2F" stroke="#FFC857" stroke-opacity="0.25" stroke-width="2"/>
  <circle cx="928" cy="246" r="172" fill="#FFC857" fill-opacity="0.22"/>
  <rect x="170" y="220" width="300" height="380" rx="28" fill="#15253F"/>
  <rect x="510" y="164" width="500" height="440" rx="32" fill="#1C3148"/>
  <rect x="236" y="278" width="168" height="26" rx="13" fill="#FFC857"/>
  <rect x="236" y="324" width="122" height="18" rx="9" fill="#DDE7F7" fill-opacity="0.65"/>
  <rect x="236" y="360" width="148" height="18" rx="9" fill="#DDE7F7" fill-opacity="0.5"/>
  <rect x="236" y="404" width="106" height="18" rx="9" fill="#DDE7F7" fill-opacity="0.42"/>
  <rect x="536" y="214" width="230" height="44" rx="22" fill="#FFC857"/>
  <rect x="536" y="282" width="390" height="22" rx="11" fill="#DDE7F7" fill-opacity="0.72"/>
  <rect x="536" y="318" width="352" height="18" rx="9" fill="#DDE7F7" fill-opacity="0.48"/>
  <rect x="536" y="352" width="286" height="18" rx="9" fill="#DDE7F7" fill-opacity="0.42"/>
  <rect x="536" y="420" width="194" height="126" rx="24" fill="#FFC857" fill-opacity="0.13" stroke="#FFC857" stroke-opacity="0.34"/>
  <rect x="760" y="420" width="166" height="126" rx="24" fill="#FFC857" fill-opacity="0.08" stroke="#FFC857" stroke-opacity="0.24"/>
  <path d="M582 526C582 492.863 608.863 466 642 466H720C753.137 466 780 492.863 780 526V566H582V526Z" fill="#FFC857" fill-opacity="0.2"/>
  <rect x="610" y="520" width="136" height="24" rx="12" fill="#FFC857"/>
  <circle cx="344" cy="602" r="84" fill="#FFD98A" fill-opacity="0.16"/>
  <circle cx="344" cy="602" r="42" fill="#FFC857" fill-opacity="0.4"/>
</svg>